<svg width="485" height="351" xmlns="http://www.w3.org/2000/svg" xmlns:xlink="http://www.w3.org/1999/xlink" xml:space="preserve" overflow="hidden"><g transform="translate(-737 -247)"><path d="M0 280.923 484.804 280.923" stroke="#000000" stroke-width="0.925657" stroke-miterlimit="10" fill="none" transform="matrix(1.00036 0 0 1 737.01 247)"/><path d="M34.6844 36.2441 202.862 36.2441 202.862 177.263 34.6844 177.263Z" stroke="#000000" stroke-width="0.925657" stroke-miterlimit="10" fill="none" transform="matrix(1.00036 0 0 1 737.01 247)"/><path d="M41.8814 44.4223 196.318 44.4223 196.318 168.757 41.8814 168.757Z" stroke="#000000" stroke-width="0.925657" stroke-miterlimit="10" fill="none" transform="matrix(1.00036 0 0 1 737.01 247)"/><path d="M190.176 95.1344 196.318 95.1344 196.318 125.482 190.176 125.482Z" stroke="#000000" stroke-width="0.925657" stroke-miterlimit="10" fill="none" transform="matrix(1.00036 0 0 1 737.01 247)"/><path d="M185.84 100.67 190.176 100.67 190.176 109.491 185.84 109.491Z" stroke="#000000" stroke-width="0.925657" stroke-miterlimit="10" fill="none" transform="matrix(1.00036 0 0 1 737.01 247)"/><path d="M207.657 155.413 199.919 163.462 199.919 315.251 231.493 315.251 231.493 296.877 418.457 296.877 418.457 315.251C418.457 315.251 446.005 315.672 446.005 315.251L446.005 161.606 433.934 155.413 207.657 155.413Z" stroke="#000000" stroke-width="0.925657" stroke-miterlimit="10" fill="#FFFFFF" transform="matrix(1.00036 0 0 1 737.01 247)"/><path d="M418.462 296.877 418.462 229.202 439.076 229.202" stroke="#000000" stroke-width="0.925657" stroke-miterlimit="10" fill="#FFFFFF" transform="matrix(1.00036 0 0 1 737.01 247)"/><path d="M231.493 296.877 231.493 229.202 208.541 229.202" stroke="#000000" stroke-width="0.925657" stroke-miterlimit="10" fill="#FFFFFF" transform="matrix(1.00036 0 0 1 737.01 247)"/><path d="M71.9513 225.097 155.316 225.097 155.316 308.461 71.9514 308.461Z" stroke="#000000" stroke-width="0.925657" stroke-miterlimit="10" fill="#FFFFFF" transform="matrix(1.00036 0 0 1 737.01 247)"/><path d="M80.9996 237.718 147.175 237.718 147.175 249.215 80.9996 249.215Z" stroke="#000000" stroke-width="0.925657" stroke-miterlimit="10" fill="none" transform="matrix(1.00036 0 0 1 737.01 247)"/><path d="M80.9996 253.575 147.175 253.575 147.175 265.071 80.9996 265.071Z" stroke="#000000" stroke-width="0.925657" stroke-miterlimit="10" fill="none" transform="matrix(1.00036 0 0 1 737.01 247)"/><path d="M80.9996 269.426 147.175 269.426 147.175 280.923 80.9996 280.923Z" stroke="#000000" stroke-width="0.925657" stroke-miterlimit="10" fill="none" transform="matrix(1.00036 0 0 1 737.01 247)"/><path d="M80.9996 285.278 147.175 285.278 147.175 296.775 80.9996 296.775Z" stroke="#000000" stroke-width="0.925657" stroke-miterlimit="10" fill="none" transform="matrix(1.00036 0 0 1 737.01 247)"/><path d="M391.086 327.845 405.35 327.845 405.35 341.35 391.086 341.35Z" stroke="#000000" stroke-width="0.925657" stroke-miterlimit="10" fill="#FFFFFF" transform="matrix(1.00036 0 0 1 737.01 247)"/><path d="M405.35 341.35 411.307 339.068 411.307 325.563 405.35 327.845 405.35 341.35Z" stroke="#000000" stroke-width="0.925657" stroke-miterlimit="10" fill="#FFFFFF" transform="matrix(1.00036 0 0 1 737.01 247)"/><path d="M391.391 327.845 405.341 327.845C405.341 327.845 405.355 327.845 405.359 327.845L411.242 325.674C411.297 325.651 411.283 325.568 411.223 325.568L397.274 325.568C397.274 325.568 397.26 325.568 397.255 325.568L391.373 327.738C391.317 327.761 391.331 327.845 391.391 327.845Z" stroke="#000000" stroke-width="0.925657" stroke-miterlimit="10" fill="#FFFFFF" transform="matrix(1.00036 0 0 1 737.01 247)"/><path d="M388.799 320.8 403.064 320.8 403.064 329.395 388.799 329.395Z" stroke="#000000" stroke-width="0.925657" stroke-miterlimit="10" fill="#F47700" transform="matrix(1.00036 0 0 1 737.01 247)"/><path d="M403.064 329.08 413.82 324.364 413.82 316.006 403.064 320.722 403.064 329.08Z" stroke="#000000" stroke-width="0.925657" stroke-miterlimit="10" fill="#F47700" transform="matrix(1.00036 0 0 1 737.01 247)"/><path d="M388.818 320.8 403.064 320.8C403.064 320.8 403.064 320.8 403.064 320.8L413.815 316.01C413.815 316.01 413.815 316.001 413.815 316.001L399.569 316.001C399.569 316.001 399.569 316.001 399.569 316.001L388.818 320.791C388.818 320.791 388.818 320.8 388.818 320.8Z" stroke="#000000" stroke-width="0.925657" stroke-miterlimit="10" fill="#F47700" transform="matrix(1.00036 0 0 1 737.01 247)"/><path d="M81.5782 214.003 93.783 214.003 93.783 225.555 81.5782 225.555Z" stroke="#000000" stroke-width="0.925657" stroke-miterlimit="10" fill="#FFFFFF" transform="matrix(1.00036 0 0 1 737.01 247)"/><path d="M93.7783 225.555 98.8741 223.606 98.8741 212.054 93.7783 214.003 93.7783 225.555Z" stroke="#000000" stroke-width="0.925657" stroke-miterlimit="10" fill="#FFFFFF" transform="matrix(1.00036 0 0 1 737.01 247)"/><path d="M81.8374 214.003 93.7691 214.003C93.7691 214.003 93.7783 214.003 93.7876 214.003L98.8185 212.147C98.8695 212.128 98.8556 212.054 98.8 212.054L86.8683 212.054C86.8683 212.054 86.8591 212.054 86.8498 212.054L81.8188 213.91C81.7679 213.929 81.7818 214.003 81.8374 214.003Z" stroke="#000000" stroke-width="0.925657" stroke-miterlimit="10" fill="#FFFFFF" transform="matrix(1.00036 0 0 1 737.01 247)"/><path d="M79.6204 207.977 91.8252 207.977 91.8252 215.331 79.6204 215.331Z" stroke="#000000" stroke-width="0.925657" stroke-miterlimit="10" fill="#F47700" transform="matrix(1.00036 0 0 1 737.01 247)"/><path d="M91.8206 215.063 101.022 211.027 101.022 203.876 91.8206 207.912 91.8206 215.063Z" stroke="#000000" stroke-width="0.925657" stroke-miterlimit="10" fill="#F47700" transform="matrix(1.00036 0 0 1 737.01 247)"/><path d="M79.6343 207.977 91.8206 207.977C91.8206 207.977 91.8206 207.977 91.8206 207.977L101.017 203.876C101.017 203.876 101.017 203.867 101.017 203.867L88.8307 203.867C88.8307 203.867 88.8307 203.867 88.8307 203.867L79.6343 207.967C79.6343 207.967 79.6343 207.977 79.6343 207.977Z" stroke="#000000" stroke-width="0.925657" stroke-miterlimit="10" fill="#F47700" transform="matrix(1.00036 0 0 1 737.01 247)"/><path d="M53.1281 316.704 64.6803 316.704 64.6803 328.909 53.1281 328.909Z" stroke="#000000" stroke-width="0.925657" stroke-miterlimit="10" fill="#FFFFFF" transform="matrix(1.00036 0 0 1 737.01 247)"/><path d="M45.7738 316.704 53.1281 316.704 53.1281 328.909 45.7738 328.909Z" stroke="#000000" stroke-width="0.925657" stroke-miterlimit="10" fill="#F47700" transform="matrix(1.00036 0 0 1 737.01 247)"/><path d="M123.936 156.779 135.914 156.779 135.914 168.757 123.936 168.757Z" stroke="#000000" stroke-width="0.925657" stroke-miterlimit="10" fill="#FFFFFF" transform="matrix(1.00036 0 0 1 737.01 247)"/><path d="M121.275 147.596 140.283 147.596 140.283 156.853 121.275 156.853Z" stroke="#000000" stroke-width="0.925657" stroke-miterlimit="10" fill="#F47700" transform="matrix(1.00036 0 0 1 737.01 247)"/><path d="M259.67 234.765 274.124 234.765 274.124 249.219 259.67 249.219Z" stroke="#000000" stroke-width="0.925657" stroke-miterlimit="10" fill="#FFFFFF" transform="matrix(-1.00036 -1.22465e-16 1.22509e-16 -1 1270.99 730.985)"/><path d="M254.398 223.685 277.327 223.685 277.327 234.849 254.398 234.849Z" stroke="#000000" stroke-width="0.925657" stroke-miterlimit="10" fill="#F47700" transform="matrix(-1.00036 -1.22465e-16 1.22509e-16 -1 1268.93 705.538)"/><path d="M314.562 156.075 296.206 162.495 291.198 151.97 291.198 126.551 308.397 119.364 314.562 123.987 322.263 135.669 319.824 151.067 329.705 159.926 352.296 166.086 370.906 246.984 359.664 252.015" stroke="#000000" stroke-width="1.85131" stroke-miterlimit="10" fill="#FFFFFF" transform="matrix(1.00036 0 0 1 737.01 247)"/><path d="M359.664 239.879 359.664 317.704 362.622 325.693 346.052 325.693 350.195 315.635 335.99 237.514 346.052 227.749 362.622 230.41" stroke="#000000" stroke-width="1.85131" stroke-miterlimit="10" fill="#FFFFFF" transform="matrix(1.00036 0 0 1 737.01 247)"/><path d="M349.306 178.629 355.096 229.202" stroke="#000000" stroke-width="1.85131" stroke-miterlimit="10" fill="#FFFFFF" transform="matrix(1.00036 0 0 1 737.01 247)"/><path d="M331.052 173.274 338.68 211.841" stroke="#000000" stroke-width="1.85131" stroke-miterlimit="10" fill="#FFFFFF" transform="matrix(1.00036 0 0 1 737.01 247)"/><path d="M310.577 217.076 303.69 196.286" stroke="#000000" stroke-width="1.85131" stroke-miterlimit="10" fill="#FFFFFF" transform="matrix(1.00036 0 0 1 737.01 247)"/><path d="M304.745 159.06 291.198 172.08 290.397 212.392 284.672 225.911 292.221 234.205 293.549 232.96 295.706 232.794" stroke="#000000" stroke-width="1.85131" stroke-miterlimit="10" fill="#FFFFFF" transform="matrix(1.00036 0 0 1 737.01 247)"/><path d="M290.397 212.392 295.456 214.711 297.613 212.392 298.936 213.221 303.69 193.481" stroke="#000000" stroke-width="1.85131" stroke-miterlimit="10" fill="#FFFFFF" transform="matrix(1.00036 0 0 1 737.01 247)"/><path d="M292.221 234.205 287.19 243.346 300.413 313.576 284.672 321.217 283.075 324.452 314.224 324.452 308.934 241.583" stroke="#000000" stroke-width="1.85131" stroke-miterlimit="10" fill="#FFFFFF" transform="matrix(1.00036 0 0 1 737.01 247)"/><path d="M339.244 255.403 309.818 255.403" stroke="#000000" stroke-width="1.85131" stroke-miterlimit="10" fill="none" transform="matrix(1.00036 0 0 1 737.01 247)"/><path d="M341.97 211.841 309.378 218.571 297.266 211.841 291.198 223.204 296.613 233.696 308.174 231.595 343.849 230.04" stroke="#000000" stroke-width="1.85131" stroke-miterlimit="10" fill="#FFFFFF" transform="matrix(1.00036 0 0 1 737.01 247)"/><path d="M233.571 249.219 415.99 249.219 415.99 255.403 233.571 255.403Z" stroke="#000000" stroke-width="0.925657" stroke-miterlimit="10" fill="#FFFFFF" transform="matrix(1.00036 0 0 1 737.01 247)"/><path d="M234.835 315.251 238.246 315.251 248.234 256.148 244.827 256.148 234.835 315.251Z" stroke="#000000" stroke-width="0.925657" stroke-miterlimit="10" fill="#FFFFFF" transform="matrix(1.00036 0 0 1 737.01 247)"/><path d="M409.705 315.251 406.299 315.251 396.306 256.148 399.713 256.148 409.705 315.251Z" stroke="#000000" stroke-width="0.925657" stroke-miterlimit="10" fill="#FFFFFF" transform="matrix(1.00036 0 0 1 737.01 247)"/></g></svg>